<svg width="29" height="27" viewBox="0 0 29 27" fill="none" xmlns="http://www.w3.org/2000/svg">
<g clip-path="url(#clip0_305_1007)">
<path d="M23.2317 2.70614H21.3631C20.3998 2.70614 19.619 3.50011 19.619 4.47953V10.0799C19.619 11.0593 20.3998 11.8533 21.3631 11.8533H23.2317C24.1949 11.8533 24.9758 11.0593 24.9758 10.0799V4.47953C24.9758 3.50011 24.1949 2.70614 23.2317 2.70614Z" fill="#DA2F36"/>
<path d="M17.1426 0.015628C17.3577 0.0348547 17.5424 0.226476 17.4971 0.441409C17.3308 1.24746 17.6888 2.31011 19.2178 3.96094L15.583 0.759769L28.4453 12.252C28.8492 12.6089 29.049 13.02 29 13.4805C29 14.4094 28.2446 15.124 27.3877 15.1201H25.7725L25.8066 23.7061C25.8142 25.5255 24.3714 27 22.582 27H6.44824C4.67019 27 3.22363 25.5296 3.22363 23.7217V15.1279H1.6123C0.706291 15.1279 0 14.4056 0 13.4844C4.49734e-05 13.0238 0.150925 12.6128 0.501953 12.2559L10.2793 3.59668L10.8115 3.12403C11.378 2.64017 14.1755 -0.218509 17.1426 0.015628ZM13.9678 7.66114C13.5789 7.66881 13.2199 7.72664 12.8877 7.8418C12.2688 8.04524 11.7477 8.42901 11.3174 8.98926C10.8077 9.66868 10.5244 10.4603 10.4678 11.3623C10.0527 11.5811 9.68709 11.8961 9.37012 12.3066C8.79643 13.0704 8.50886 13.9757 8.50879 15.0234C8.50879 16.0714 8.85643 17.0048 9.55859 17.7725C9.64571 17.8571 9.95156 18.1102 10.4834 18.5244C10.6457 18.651 10.8306 18.7969 11.0381 18.958C11.2759 19.1461 11.5445 19.3537 11.8428 19.584L13.375 20.7891C14.0658 21.3265 14.5149 21.9217 14.7188 22.5742C14.798 22.8276 14.843 23.0888 14.8506 23.3613C15.3224 23.3038 15.7645 23.15 16.1797 22.9082C16.4325 22.7624 16.6741 22.5781 16.9043 22.3633C17.5007 21.7799 17.8826 21.0619 18.0449 20.2061C18.4753 20.0372 18.8793 19.776 19.2568 19.4229C20.0797 18.6168 20.4912 17.5496 20.4912 16.2217C20.4912 15.3581 20.2573 14.613 19.793 13.9873C19.525 13.6227 18.9772 13.1316 18.1543 12.5098L17.2637 11.834L16.6816 11.3926L15.251 10.3066C14.5337 9.75006 14.1113 9.08181 13.998 8.29492C13.9754 8.14522 13.9639 7.98739 13.9639 7.82617C13.9639 7.77257 13.964 7.71472 13.9678 7.66114ZM10.4834 12.2373C10.525 13.1469 10.9215 13.815 11.499 14.4522C11.6051 14.5561 12.0473 14.9126 12.8281 15.5225C12.9904 15.6491 13.171 15.7879 13.3672 15.9414C13.4993 16.0412 13.636 16.1485 13.7832 16.2637L15.3154 17.4688C16.1422 18.1098 16.6256 18.8396 16.7539 19.6533C16.7803 19.8067 16.791 19.964 16.791 20.125C16.791 20.2363 16.7878 20.3406 16.7803 20.4404C16.7313 21.0983 16.5243 21.6071 16.1641 21.9639C16.0881 21.313 15.8661 20.7383 15.4932 20.2441C15.4932 20.2441 15.4893 20.2402 15.4893 20.2363C15.2175 19.8755 14.6736 19.3845 13.8545 18.7666L12.8311 17.9912L10.9512 16.5635C10.0905 15.8994 9.66016 15.0734 9.66016 14.0869C9.66023 13.4845 9.86423 12.9396 10.2793 12.4561C10.3434 12.3755 10.4155 12.3025 10.4834 12.2373ZM12.6016 8.9668C12.6016 10.0338 13.0542 10.863 13.8545 11.5117C13.8658 11.5194 13.8775 11.5306 13.8926 11.5459C14.0474 11.6841 14.4887 12.0414 15.2246 12.6094C15.4926 12.8167 15.799 13.0545 16.1426 13.3193L17.6748 14.5283C18.66 15.2921 19.1503 16.179 19.1504 17.1846C19.1504 18.1903 18.8145 18.9277 18.1426 19.3154L18.1387 19.3115V19.1582C18.1387 18.2945 17.9048 17.5495 17.4404 16.9238C17.1724 16.5631 16.6254 16.0679 15.8027 15.4463L15.3154 15.0732L14.7188 14.6211L12.9033 13.2432C12.307 12.7826 11.9213 12.2489 11.7363 11.6387C11.6759 11.4352 11.6381 11.2276 11.623 11.0088C11.6155 10.932 11.6123 10.8511 11.6123 10.7705C11.6124 10.4403 11.7029 9.7843 12.0312 9.30078C12.186 9.07047 12.3902 8.8824 12.6016 8.74805V8.9668Z" fill="#DA2F36"/>
</g>
<defs>
<clipPath id="clip0_305_1007">
<rect width="29" height="27" fill="white"/>
</clipPath>
</defs>
</svg>
